<svg class="fill-current" viewBox="0 0 511.653 511.653" xmlns="http://www.w3.org/2000/svg"><path d="M380.01 162.453l-16.019-12.996-7.46 19.247c-.143.367-14.473 36.601-36.479 30-4.872-1.462-8.14-4.281-10.283-8.874-5.465-11.706-3.14-32.895 5.922-53.981 12.53-29.157 7.043-59.709-15.868-88.355-16.116-20.149-35.479-32.347-36.296-32.857L240.066 0l.523 27.649c.009.494.514 49.616-35.857 67.629-22.284 11.036-38.236 29.289-44.919 51.397-6.251 20.682-3.626 43.295 7.203 62.04 4.433 7.673 5.776 14.181 3.994 19.343-2.547 7.375-10.775 11.172-13.237 12.16-26.002 10.443-43.023-24.421-43.711-25.86l-11.861-25.316-14.535 23.881C69 243.589 59.135 278.88 59.135 314.981c0 107.656 86.959 195.371 194.329 196.643.784.02 1.57.03 2.359.03h.004c108.456 0 196.691-88.228 196.691-196.673 0-59.384-26.427-114.978-72.508-152.528zM194.311 420.145l-.001-.185c-.147-11.939 2.127-24.742 6.775-38.194l36.971 10.806.373-19.617c.57-30.045 17.513-48.489 31.059-58.467 3.473 15.112 8.888 28.587 16.366 40.809 8.527 13.913 16.602 25.707 24.05 36.367 4.785 6.863 7.499 17.224 7.445 28.425v.072c0 16.424-6.4 31.869-18.021 43.49-11.61 11.609-27.06 18.003-43.504 18.003h-.005c-33.904-.003-61.496-27.584-61.508-61.509zm144.075 39.588c5.856-12.187 8.959-25.624 8.963-39.541.077-17.481-4.481-33.706-12.845-45.7-8.307-11.891-15.409-22.372-23.066-34.865-8.537-13.951-13.671-30.393-15.692-50.264l-1.977-19.423-18.258 6.914c-1.712.648-17.179 6.747-33.032 21.128-16.812 15.25-27.664 34.108-31.966 55.284l-26.814-7.837-5.293 12.072c-9.582 21.853-14.324 42.959-14.095 62.737.014 14.155 3.26 27.568 9.037 39.54-50.263-28.736-84.214-82.876-84.214-144.799 0-22.526 4.528-44.675 13.223-65.152a88.928 88.928 0 004.254 4.394c18.374 17.686 40.513 22.599 62.338 13.836 14.744-5.919 25.83-16.929 30.416-30.206 3.265-9.453 4.81-24.785-6.374-44.144-6.797-11.766-8.382-25.387-4.463-38.353 4.259-14.088 14.741-25.876 29.517-33.194 31.096-15.401 43.808-44.313 48.993-66.245 3.272 3.218 6.634 6.863 9.794 10.871 15.413 19.542 19.213 38.793 11.295 57.219-12.664 29.47-14.737 58.821-5.544 78.515 5.775 12.374 15.751 20.99 28.847 24.919 20.586 6.177 40.719-1.013 56.693-20.243a97.62 97.62 0 006.631-9.02c30.553 31.046 47.763 72.692 47.763 116.803.001 61.891-33.912 116.006-84.131 144.754z"/></svg>